<?xml version="1.0" encoding="utf-8"?>
<!-- Generator: Adobe Illustrator 26.5.0, SVG Export Plug-In . SVG Version: 6.00 Build 0)  -->
<svg version="1.1" id="Layer_1" xmlns="http://www.w3.org/2000/svg" xmlns:xlink="http://www.w3.org/1999/xlink" x="0px" y="0px"
	 viewBox="0 0 256 256" style="enable-background:new 0 0 256 256;" xml:space="preserve">
<style type="text/css">
	.st0{fill:#FFFFFF;}
</style>
<path class="st0" d="M128,0C57.3,0,0,57.3,0,128s57.3,128,128,128s128-57.3,128-128S198.7,0,128,0z M196.6,94.8
	c-1.3,4.4-8.5,16.1-17.9,28.9c-9.5,12.9-9.4,12.8-13.1,22.3c-7.1,18.2-18.5,39.8-25.8,48.7c-4.2,5.2-6.3,9.9-8.1,17.8l-1.2,5.8
	l-16.3-3.3c-8.9-1.8-18.4-3.7-21-4.3l-4.8-0.9l-0.3-4.5c-0.4-5.8-5.4-19.2-13.4-35.4c-3.3-6.6-6.2-13.1-6.6-14.5
	c-0.4-1.4-1.9-9.6-3.4-18.2c-3-17.4-4.8-24.9-8.5-34.5c-3.8-9.9-2.6-11.6,5.1-7.1c3.4,2,4.5,3.1,7.2,7.2c3.1,4.8,3.2,5,4.6,16.7
	c0.8,6.5,2,13.2,2.5,14.9c1.2,3.8,4,6.9,7.1,7.9c2.1,0.7,2.5,0.6,5.3-1.6c6.4-5.1,11.4-16.3,13.3-29.6c0.6-3.9,2.2-14.1,3.8-22.8
	c1.5-8.7,3.2-19.6,3.7-24.2c1-8.7,2.3-13.1,5-18.5c1.5-2.8,5.2-6.3,5.8-5.4c0.1,0.2,0.4,1.9,0.6,3.7c0.7,6.6-1.2,23.9-4.6,41.3
	c-2.4,12.7-2.4,16.8,0.1,20.7c2.1,3.3,4.8,4,7.8,2.1c3.4-2.2,4.8-5.4,8.4-19c6.6-25.7,11.1-39.3,15.1-46.1c2-3.4,2.2-3.5,3.6-3
	c3.4,1.3,3.2,4.1-0.8,17.6c-1.4,4.6-4.1,14-6,21c-2,7.1-4.4,15.6-5.3,19c-2.9,10.2-2,16.5,2.3,16.8c5.6,0.4,13.4-12.6,22-36.8
	c4.2-12,7.7-19.5,9.6-20.7c3.4-2.2,4.1,5.5,1.2,14.5c-3.8,11.5-12.2,32.6-15.2,38c-1.6,2.8-3.5,6.6-4,8.4c-2.5,7.9,1.9,15,7.2,11.6
	c4.6-2.9,15.2-15.9,25.1-30.6c4.8-7.1,5.7-7.9,8.7-7.4l2.2,0.3L196.6,94.8z"/>
</svg>
