<?xml version="1.0" encoding="utf-8"?>
<!-- Generator: Adobe Illustrator 26.5.0, SVG Export Plug-In . SVG Version: 6.00 Build 0)  -->
<svg version="1.1" id="Layer_1" xmlns="http://www.w3.org/2000/svg" xmlns:xlink="http://www.w3.org/1999/xlink" x="0px" y="0px"
	 viewBox="0 0 256 256" style="enable-background:new 0 0 256 256;" xml:space="preserve">
<style type="text/css">
	.st0{fill:#FFFFFF;}
</style>
<g transform="translate(0.000000,256.000000) scale(0.100000,-0.100000)">
	<path class="st0" d="M1099.7,2176.2c-39.2-47.4-66.4-137.2-83.2-274.8c-7.1-59-22.6-154.9-33.3-213.7c-11-58.1-25.7-147.6-33-198.2
		c-6.7-50.3-20-114.1-29.4-140.6c-15.8-46.8-59.5-126.8-74.5-136.5c-14.4-9.3-27.9,40.7-41.2,156.3
		c-16.1,138.5-30.4,177.8-84.2,237.5c-48.9,53.5-87.8,79.5-134.9,89.2c-63.9,13.3-115.5-26.8-115.9-90.8
		c-0.6-12.3,12.4-54.9,27.5-95.4c36.4-94.8,51.1-155.9,84-348.2c14.9-86.5,31.9-170.9,37.9-188.2c6.1-17.3,37.6-84.7,69.9-150.6
		c95.5-194.5,126.1-285.4,123.7-375.4c-1-40.6,9.3-50.1,67.1-58c28.5-4.6,144.4-26,256.9-48.8c239.8-48.8,237.2-48.7,242.8,29.7
		c3.7,48.3,24.1,121,44.1,156c5.7,9.6,27.6,39,48.2,65.1c70.6,87.2,180.4,298.3,251.3,482.6c28.1,72.6,41.7,94.9,117.5,199.1
		c171.5,235.5,231.5,360.1,197.8,412.4c-29,45.1-127.4,44.6-176.1-1.2c-10.5-10.2-41.7-51.5-69.1-92.1
		c-55-82.2-168.2-227.5-178.5-229.9c-3.4-1.3,9.6,27.4,29.7,63.4c35.9,65.7,137.3,321.6,166,420.9c28.9,97.7,22.9,155.9-19.7,198.2
		c-31.7,30.6-63.5,33.9-99.6,10.7c-46.5-30.8-68.1-71.1-129.2-245.7c-32.8-91.7-65.3-170.5-96.6-231.5c-17.2-34-15.9-25.5,11.6,67.8
		c11.1,36.9,32.9,113.9,47.7,170.2c15.4,56.7,38.7,140.6,52.1,185.8c26.8,90.4,31.6,134.4,19.1,167.1c-12,30.5-48.3,59.1-82.1,65.3
		c-24.7,5.3-34.5,3.3-57.5-12.4c-35.7-23.8-58.3-63.9-100.8-178.9c-30.9-85.4-43.3-128.2-104.8-362.7
		c-46.6-179.8-55.6-154-16.5,50.6c27.9,148.1,47.5,339.4,40.9,399.8c-6.4,61.4-18.6,79-61.1,90.8c-30.4,7.6-38,6.1-68-10.6
		C1127.7,2200.2,1107.2,2184.4,1099.7,2176.2z M1198.2,2158c1.2-1.8,3.7-18.9,6-37c6.5-65.6-12.5-239.4-45.9-413.2
		c-23.8-126.8-23.8-167.6,1.3-206.7c21.3-33.1,48.2-40.4,78.2-21.1c34.3,22.1,48.4,54.2,83.5,189.9c66.5,257.2,110.8,393,151,461.4
		c19.8,34,21.6,35.2,36,30c33.9-13,32.5-41.2-8.1-176.2c-14-45.6-40.7-140.2-60-210.5c-19.9-70.7-44.1-156-53.5-190.2
		c-28.8-101.9-20.2-165.3,22.6-168.3c56.1-3.8,133.9,126.2,219.7,367.9c42.5,120.1,76.8,195,96,207.4c34.3,22.1,40.8-55.4,12-145.4
		c-37.9-115.4-122.3-326.3-152.5-379.8c-16.5-28.5-34.6-66.5-40.4-83.9c-24.8-78.9,19.3-150,71.6-116.3
		c45.7,29.4,151.8,159.1,251.3,305.7c47.9,70.9,57.4,78.6,87.4,74.2l22.2-2.7l-9.4-31.6c-12.6-43.8-85-161.1-178.8-288.8
		c-94.6-129-93.8-127.7-131-223.1c-70.9-181.8-184.9-398.2-257.9-486.9c-41.9-52.5-63.2-98.6-80.9-178l-12-57.9l-163.1,32.7
		c-89.2,18.2-183.9,37.2-209.6,42.7l-47.7,9.3l-2.7,45.1c-3.5,58.2-54.1,192.2-133.9,354.3c-32.9,65.6-62.2,130.9-66,144.6
		c-3.8,13.7-19.1,95.7-34.1,182.2c-29.6,174-48.1,248.9-85.3,344.8c-38.1,98.8-25.6,116.2,51.1,71.2c34.4-20.4,44.5-30.8,71.9-71.9
		c31-48.1,31.5-50.3,46.2-166.7c7.7-64.8,19.6-132,25.3-148.8c12.5-37.9,40.4-69.3,70.8-79.4c20.7-7.1,25.1-5.9,53.2,16.4
		c63.9,51.4,114.4,163,132.7,295.6c5.8,38.6,22.2,141.1,37.5,228.3s32,195.9,37.3,241.8c10.5,86.7,22.7,131.1,50.3,184.7
		C1155.4,2132.1,1192.4,2167,1198.2,2158z"/>
</g>
<g>
	<path class="st0" d="M128,7c32.3,0,62.7,12.6,85.6,35.4C236.4,65.3,249,95.7,249,128s-12.6,62.7-35.4,85.6
		C190.7,236.4,160.3,249,128,249s-62.7-12.6-85.6-35.4C19.6,190.7,7,160.3,7,128s12.6-62.7,35.4-85.6C65.3,19.6,95.7,7,128,7 M128,0
		C57.3,0,0,57.3,0,128s57.3,128,128,128s128-57.3,128-128S198.7,0,128,0L128,0z"/>
</g>
</svg>
